HIERARCHY
ROOT Hips
{
    OFFSET   0.000000   0.000000   0.000000
    CHANNELS 6 Xposition Yposition Zposition Zrotation Xrotation Yrotation
    JOINT Chest
    {
        OFFSET   0.000000   8.007230   0.000000
        CHANNELS 3 Zrotation Xrotation Yrotation
        JOINT Chest2
        {
            OFFSET   0.000000  22.077100   0.000000
            CHANNELS 3 Zrotation Xrotation Yrotation
            JOINT Neck
            {
                OFFSET   0.000000  23.255100   0.000000
                CHANNELS 3 Zrotation Xrotation Yrotation
                JOINT Head
                {
                    OFFSET   0.000000  14.370100   1.956600
                    CHANNELS 3 Zrotation Xrotation Yrotation
                    End Site
                    {
                        OFFSET   0.000000  19.566000   0.000000
                    }
                }
            }
            JOINT LeftCollar
            {
                OFFSET   3.911900  19.017000  -0.467063
                CHANNELS 3 Zrotation Xrotation Yrotation
                JOINT LeftShoulder
                {
                    OFFSET  10.383700   0.000000   0.000000
                    CHANNELS 3 Zrotation Xrotation Yrotation
                    JOINT LeftElbow
                    {
                        OFFSET  26.662100   0.001193   0.000980
                        CHANNELS 3 Zrotation Xrotation Yrotation
                        JOINT LeftWrist
                        {
                            OFFSET  28.869000  -0.000059  -0.000082
                            CHANNELS 3 Zrotation Xrotation Yrotation
                            JOINT LeftFinger0
                            {
                                OFFSET   2.044650  -2.323450   3.252850
                                CHANNELS 3 Zrotation Xrotation Yrotation
                                JOINT LeftFinger01
                                {
                                    OFFSET   3.088130   0.000000   0.000000
                                    CHANNELS 3 Zrotation Xrotation Yrotation
                                    JOINT LeftFinger02
                                    {
                                        OFFSET   2.639460   0.000000   0.000000
                                        CHANNELS 3 Zrotation Xrotation Yrotation
                                        End Site
                                        {
                                            OFFSET   2.582190   0.000000   0.000000
                                        }
                                    }
                                }
                            }
                            JOINT LeftFinger1
                            {
                                OFFSET   8.364480   0.000000   3.252850
                                CHANNELS 3 Zrotation Xrotation Yrotation
                                JOINT LeftFinger11
                                {
                                    OFFSET   4.646930   0.000000   0.000000
                                    CHANNELS 3 Zrotation Xrotation Yrotation
                                    JOINT LeftFinger12
                                    {
                                        OFFSET   2.323470   0.000000   0.000000
                                        CHANNELS 3 Zrotation Xrotation Yrotation
                                        End Site
                                        {
                                            OFFSET   2.273050   0.000000   0.000000
                                        }
                                    }
                                }
                            }
                            JOINT LeftFinger2
                            {
                                OFFSET   8.364490   0.000016   1.078090
                                CHANNELS 3 Zrotation Xrotation Yrotation
                                JOINT LeftFinger21
                                {
                                    OFFSET   5.111610   0.000000   0.000000
                                    CHANNELS 3 Zrotation Xrotation Yrotation
                                    JOINT LeftFinger22
                                    {
                                        OFFSET   2.788150   0.000016   0.000000
                                        CHANNELS 3 Zrotation Xrotation Yrotation
                                        End Site
                                        {
                                            OFFSET   2.727660   0.000000   0.000000
                                        }
                                    }
                                }
                            }
                            JOINT LeftFinger3
                            {
                                OFFSET   7.899780   0.000015  -1.078090
                                CHANNELS 3 Zrotation Xrotation Yrotation
                                JOINT LeftFinger31
                                {
                                    OFFSET   4.646930   0.000000   0.000000
                                    CHANNELS 3 Zrotation Xrotation Yrotation
                                    JOINT LeftFinger32
                                    {
                                        OFFSET   2.323470   0.000000   0.000000
                                        CHANNELS 3 Zrotation Xrotation Yrotation
                                        End Site
                                        {
                                            OFFSET   2.273050   0.000000   0.000000
                                        }
                                    }
                                }
                            }
                            JOINT LeftFinger4
                            {
                                OFFSET   7.435090   0.000000  -3.252850
                                CHANNELS 3 Zrotation Xrotation Yrotation
                                JOINT LeftFinger41
                                {
                                    OFFSET   3.717550   0.000000   0.000000
                                    CHANNELS 3 Zrotation Xrotation Yrotation
                                    JOINT LeftFinger42
                                    {
                                        OFFSET   1.858770   0.000000   0.000000
                                        CHANNELS 3 Zrotation Xrotation Yrotation
                                        End Site
                                        {
                                            OFFSET   1.818440   0.000000   0.000000
                                        }
                                    }
                                }
                            }
                        }
                    }
                }
            }
            JOINT RightCollar
            {
                OFFSET  -3.911910  19.017000  -0.467062
                CHANNELS 3 Zrotation Xrotation Yrotation
                JOINT RightShoulder
                {
                    OFFSET -10.383700   0.000014   0.000000
                    CHANNELS 3 Zrotation Xrotation Yrotation
                    JOINT RightElbow
                    {
                        OFFSET -26.662100   0.001225   0.001091
                        CHANNELS 3 Zrotation Xrotation Yrotation
                        JOINT RightWrist
                        {
                            OFFSET -28.869000  -0.000020  -0.000085
                            CHANNELS 3 Zrotation Xrotation Yrotation
                            JOINT RightFinger0
                            {
                                OFFSET  -2.044650  -2.323490   3.252850
                                CHANNELS 3 Zrotation Xrotation Yrotation
                                JOINT RightFinger01
                                {
                                    OFFSET  -3.088130   0.000000   0.000000
                                    CHANNELS 3 Zrotation Xrotation Yrotation
                                    JOINT RightFinger02
                                    {
                                        OFFSET  -2.639460   0.000000   0.000000
                                        CHANNELS 3 Zrotation Xrotation Yrotation
                                        End Site
                                        {
                                            OFFSET  -2.582190   0.000000   0.000000
                                        }
                                    }
                                }
                            }
                            JOINT RightFinger1
                            {
                                OFFSET  -8.364480   0.000000   3.252850
                                CHANNELS 3 Zrotation Xrotation Yrotation
                                JOINT RightFinger11
                                {
                                    OFFSET  -4.646930   0.000000   0.000000
                                    CHANNELS 3 Zrotation Xrotation Yrotation
                                    JOINT RightFinger12
                                    {
                                        OFFSET  -2.323470   0.000000   0.000000
                                        CHANNELS 3 Zrotation Xrotation Yrotation
                                        End Site
                                        {
                                            OFFSET  -2.273050   0.000000   0.000000
                                        }
                                    }
                                }
                            }
                            JOINT RightFinger2
                            {
                                OFFSET  -8.364480   0.000000   1.078090
                                CHANNELS 3 Zrotation Xrotation Yrotation
                                JOINT RightFinger21
                                {
                                    OFFSET  -5.111620   0.000000   0.000000
                                    CHANNELS 3 Zrotation Xrotation Yrotation
                                    JOINT RightFinger22
                                    {
                                        OFFSET  -2.788160   0.000000   0.000000
                                        CHANNELS 3 Zrotation Xrotation Yrotation
                                        End Site
                                        {
                                            OFFSET  -2.727660   0.000000   0.000000
                                        }
                                    }
                                }
                            }
                            JOINT RightFinger3
                            {
                                OFFSET  -7.899780   0.000000  -1.078090
                                CHANNELS 3 Zrotation Xrotation Yrotation
                                JOINT RightFinger31
                                {
                                    OFFSET  -4.646930   0.000000   0.000000
                                    CHANNELS 3 Zrotation Xrotation Yrotation
                                    JOINT RightFinger32
                                    {
                                        OFFSET  -2.323470   0.000000   0.000000
                                        CHANNELS 3 Zrotation Xrotation Yrotation
                                        End Site
                                        {
                                            OFFSET  -2.273050   0.000000   0.000000
                                        }
                                    }
                                }
                            }
                            JOINT RightFinger4
                            {
                                OFFSET  -7.435090   0.000000  -3.252850
                                CHANNELS 3 Zrotation Xrotation Yrotation
                                JOINT RightFinger41
                                {
                                    OFFSET  -3.717550   0.000000   0.000000
                                    CHANNELS 3 Zrotation Xrotation Yrotation
                                    JOINT RightFinger42
                                    {
                                        OFFSET  -1.858760   0.000000   0.000000
                                        CHANNELS 3 Zrotation Xrotation Yrotation
                                        End Site
                                        {
                                            OFFSET  -1.818440   0.000000   0.000000
                                        }
                                    }
                                }
                            }
                        }
                    }
                }
            }
        }
    }
    JOINT LeftHip
    {
        OFFSET   9.783030   0.000000   0.000000
        CHANNELS 3 Zrotation Xrotation Yrotation
        JOINT LeftKnee
        {
            OFFSET   0.000063 -41.789100   0.000608
            CHANNELS 3 Zrotation Xrotation Yrotation
            JOINT LeftAnkle
            {
                OFFSET   0.000048 -41.133200  -0.000184
                CHANNELS 3 Zrotation Xrotation Yrotation
                JOINT LeftToe
                {
                    OFFSET   0.000000  -6.358960  14.674500
                    CHANNELS 3 Zrotation Xrotation Yrotation
                    End Site
                    {
                        OFFSET   0.000000   0.000000   3.913200
                    }
                }
            }
        }
    }
    JOINT RightHip
    {
        OFFSET  -9.783030   0.000000   0.000000
        CHANNELS 3 Zrotation Xrotation Yrotation
        JOINT RightKnee
        {
            OFFSET   0.000071 -41.789100   0.001239
            CHANNELS 3 Zrotation Xrotation Yrotation
            JOINT RightAnkle
            {
                OFFSET   0.000037 -41.133200  -0.000166
                CHANNELS 3 Zrotation Xrotation Yrotation
                JOINT RightToe
                {
                    OFFSET   0.000000  -6.358960  14.674500
                    CHANNELS 3 Zrotation Xrotation Yrotation
                    End Site
                    {
                        OFFSET   0.000000   0.000000   3.913200
                    }
                }
            }
        }
    }
}
MOTION
Frames: 4
Frame Time:   0.016667
  0.767679  89.571300  -0.364481  -4.016110 -15.378100  -0.562854  -0.166729  10.467300   5.339620  -1.375380  20.871000  10.992600   0.422486  -2.076820   0.008806   0.697069  -4.210960  -5.459550  -6.990530  -8.794540  -3.028900 -70.145700  22.468900  -5.515680  -1.138210 -11.746800 -16.667100  14.903500 -15.002500   7.802760  41.648400  35.091500 -67.531300 -28.956000   0.000213   0.001284  -9.477950   0.000592  -0.003135 -26.314800   3.972890  -7.975000 -21.757000   0.008521  -0.001041 -15.229200   0.000603  -0.009856 -28.125100  -0.000292   0.000501 -32.852500  -0.004330  -0.002091 -21.879700   0.003927  -0.004360 -26.617000  -0.000271   0.000514 -26.617000  -0.004210  -0.002090 -17.727400  -0.003200  -0.010808 -27.537900  -0.000312   0.000483 -41.306800  -0.004526   0.000039 -27.510400   0.001106  -0.009342   7.000760  -6.127080  11.397400  45.563900  -3.380470  65.597800 -26.076400 -34.045900  41.603800  36.961200 -60.111900  39.987800 -47.035000  25.841000  53.997700 -12.559300  -0.004918  -0.001092 -11.279600  -0.011338   0.003086  88.995600   4.999240   0.094092  86.198500   0.002807   0.003028  64.648900   0.010539   0.002844  88.992900  -0.013854   0.004890  92.858900  -0.001010   0.010935  69.644100   0.009296   0.000125  87.193400  -4.998880  -0.243795  87.204100  -0.003580   0.003885  65.403000   0.002961   0.000297  30.982300  -2.578290  -4.288130  46.618300   0.003854  -0.003617  31.047800   0.003853  -0.004258   3.151610  17.510100   4.323070   0.701510   0.108266   3.470540  -0.949737  -3.954430   2.012760   0.000000   0.000000   0.000000   4.919450  16.681200  -7.178750  -0.503954   2.535710  -6.544800  -1.256220  -4.440110   1.924110  -0.000000   0.000000  -0.000000
  0.762769  89.568200  -0.349424  -4.044930 -15.323800  -0.700986  -0.154512  10.420100   5.357550  -1.351350  20.777800  11.024200   0.438204  -2.087140   0.008723   0.722625  -4.231640  -5.520190  -6.998580  -8.749160  -3.037580 -70.200800  22.361200  -5.487870  -1.097320 -11.581700 -16.780500  14.918100 -15.001700   7.767060  41.696900  35.153700 -67.624700 -28.932600   0.000168   0.001173  -9.466320   0.000578  -0.003130 -26.318000   3.994030  -8.015760 -21.762000   0.008529  -0.001030 -15.233400   0.000591  -0.009852 -28.130200   0.021151  -0.039628 -32.889200  -0.004329  -0.002059 -21.904200   0.003885  -0.004370 -26.617100   0.020097  -0.040181 -26.617100  -0.004208  -0.002059 -17.727000  -0.003201  -0.010789 -27.550500   0.020711  -0.039912 -41.325700  -0.004526   0.000000 -27.523000   0.001054  -0.009347   7.052510  -6.170440  11.349200  45.604500  -3.173180  65.300100 -26.105500 -33.957000  41.793000  37.086400 -59.992300  40.030600 -47.186900  26.147700  54.374500 -12.301500  -0.005291  -0.001103 -11.150700  -0.011858   0.003420  88.995600   4.999240   0.094121  85.796400   0.002819   0.007040  64.347300   0.010656   0.002874  88.992900  -0.014016   0.004969  92.470300  -0.001082   0.011076  69.352700   0.009446   0.000087  86.874500  -4.998510  -0.270345  86.886400  -0.003590   0.003996  65.164700   0.003097   0.000296  30.911400  -2.573100  -4.288230  46.511600   0.004118  -0.003606  30.976700   0.004035  -0.004495   3.132750  17.485100   4.331180   0.707533   0.110930   3.544800  -0.943182  -3.982600   2.070870  -0.000000   0.000000   0.000000   4.915460  16.655500  -7.118580  -0.508001   2.493630  -6.498750  -1.262490  -4.416030   1.958250  -0.000000   0.000000   0.000000
  0.758829  89.562500  -0.329916  -4.062950 -15.260900  -0.809111  -0.142179  10.356300   5.354660  -1.323960  20.651900  11.011600   0.451649  -2.081660   0.008585   0.744775  -4.220440  -5.568290  -7.003780  -8.685460  -3.030470 -70.259800  22.272900  -5.446870  -1.040760 -11.376800 -16.897600  14.950300 -15.003500   7.735010  41.718900  35.179400 -67.660100 -28.920500   0.000084   0.001055  -9.461130   0.000587  -0.003118 -26.330200   4.006090  -8.037010 -21.773400   0.008534  -0.001019 -15.241500   0.000584  -0.009851 -28.138900   0.028139  -0.052671 -32.952200  -0.004331  -0.002026 -21.946200   0.003846  -0.004380 -26.625400   0.026726  -0.053429 -26.625500  -0.004207  -0.002028 -17.732500  -0.003200  -0.010769 -27.577900   0.027568  -0.053071 -41.366800  -0.004525   0.000000 -27.550400   0.001022  -0.009389   7.105040  -6.185640  11.314900  45.646700  -2.895710  64.898800 -26.241200 -33.850600  41.949700  37.048600 -60.026800  39.992900 -47.610500  26.757300  54.951000 -11.950900  -0.007319  -0.001496 -10.975400  -0.012267   0.007824  88.995600   4.999240   0.094141  84.944000   0.002816   0.012732  63.708000   0.010663   0.002910  89.097000  -0.014219   0.005036  91.651800  -0.001152   0.010946  68.738900   0.009382   0.000033  86.330200  -4.997020  -0.316462  86.344200  -0.003606   0.004122  64.758100   0.003234   0.000305  30.900000  -2.570400  -4.288130  46.494300   0.004271  -0.003608  30.965100   0.004132  -0.004616   3.117610  17.467900   4.337890   0.705480   0.084804   3.603250  -0.937466  -3.991900   2.116900  -0.000000   0.000000  -0.000000   4.905110  16.632200  -7.041370  -0.501130   2.434880  -6.484080  -1.268060  -4.386210   1.983160  -0.000000   0.000000   0.000000
  0.756925  89.555400  -0.307258  -4.071880 -15.185900  -0.889645  -0.130393  10.274800   5.340710  -1.282350  20.490500  10.976500   0.463141  -2.062160   0.008437   0.763519  -4.180970  -5.613440  -7.005550  -8.605900  -3.008760 -70.328800  22.198100  -5.394650  -0.972427 -11.141700 -17.014200  14.991200 -15.009500   7.708170  41.733300  35.197400 -67.678000 -28.917300   0.000000   0.000935  -9.459950   0.000596  -0.003105 -26.346700   4.013010  -8.043310 -21.787400   0.008538  -0.001007 -15.251200   0.000578  -0.009850 -28.149300   0.029137  -0.054534 -33.028000  -0.004333  -0.001996 -21.996700   0.003806  -0.004390 -26.641200   0.027673  -0.055321 -26.641200  -0.004207  -0.001999 -17.743000  -0.003198  -0.010750 -27.613300   0.028548  -0.054950 -41.419900  -0.004524   0.000000 -27.585700   0.000998  -0.009450   7.175380  -6.188080  11.297800  45.678700  -2.540410  64.290300 -26.464100 -33.599700  42.184200  36.781400 -60.268600  39.727200 -48.210700  27.558800  55.693800 -11.392800  -0.011352  -0.002228 -10.696400  -0.012918   0.014284  88.995600   4.999250   0.094156  83.809000   0.002812   0.016476  62.856700   0.010671   0.002958  89.201200  -0.014341   0.005103  90.571500  -0.001225   0.010816  67.928700   0.009287  -0.000000  85.630100  -4.993060  -0.376592  85.646700  -0.003631   0.004258  64.235100   0.003369   0.000323  30.898400  -2.569440  -4.287480  46.491800   0.004765  -0.003616  30.963500   0.004435  -0.004983   3.105250  17.431800   4.344970   0.701547   0.058683   3.647620  -0.933418  -4.004610   2.149770   0.000000   0.000000   0.000000   4.888220  16.601000  -6.969720  -0.486445   2.369360  -6.478920  -1.275060  -4.355250   2.000870  -0.000000   0.000000   0.000000
